<svg width="64" height="64" viewBox="0 0 64 64" fill="none" xmlns="http://www.w3.org/2000/svg">
  <path d="M32 50V21" stroke="#5C5045" stroke-width="2.6" stroke-linecap="round"/>
  <path d="M31.938 25.164C26.514 25.62 21.265 23.66 17 19.5C20.699 14.305 25.201 11.968 31.938 12.94V25.164Z" stroke="#5C5045" stroke-width="2.2" stroke-linejoin="round"/>
  <path d="M32.062 21.593C36.588 21.845 40.949 20.203 44.5 16.75C41.518 12.417 37.644 10.425 32.062 11.101V21.593Z" stroke="#5C5045" stroke-width="2.2" stroke-linejoin="round"/>
  <path d="M32.05 35.772C36.349 36.137 40.602 34.882 44 31.75C41.185 27.472 37.619 25.385 32.05 26.013V35.772Z" stroke="#5C5045" stroke-width="2.2" stroke-linejoin="round"/>
  <path d="M31.95 39.48C28.181 39.854 24.509 38.73 21.5 35.95C23.938 32.069 27.077 30.289 31.95 30.823V39.48Z" stroke="#5C5045" stroke-width="2.2" stroke-linejoin="round"/>
</svg>
